<svg xmlns="http://www.w3.org/2000/svg" width="1600" height="640" viewBox="0 0 1600 640" role="img" aria-label="Industrial AI Dashboard banner">
<defs>
  <linearGradient id="gradB" x1="0" y1="0" x2="1" y2="1">
    <stop offset="0" stop-color="#fb923c"/><stop offset="1" stop-color="#0284c7"/></linearGradient>
  <linearGradient id="bggB" x1="0" y1="0" x2="0.6" y2="1">
    <stop offset="0" stop-color="#192335"/><stop offset="1" stop-color="#0b111b"/></linearGradient>
  <radialGradient id="glowB" cx="0.5" cy="0.5" r="0.5">
    <stop offset="0" stop-color="#fb923c" stop-opacity="0.55"/>
    <stop offset="0.55" stop-color="#0284c7" stop-opacity="0.12"/>
    <stop offset="1" stop-color="#fb923c" stop-opacity="0"/></radialGradient>
  <filter id="blurB" x="-60%" y="-60%" width="220%" height="220%">
    <feGaussianBlur stdDeviation="9"/></filter>
  <linearGradient id="sheenB" x1="0" y1="0" x2="0" y2="1">
    <stop offset="0" stop-color="#ffffff" stop-opacity="0.10"/>
    <stop offset="0.45" stop-color="#ffffff" stop-opacity="0"/></linearGradient>
  <pattern id="gridB" width="32" height="32" patternUnits="userSpaceOnUse">
    <path d="M32 0H0V32" fill="none" stroke="#fb923c" stroke-opacity="0.05" stroke-width="1"/></pattern>
</defs>
<rect width="1600" height="640" fill="url(#bggB)"/>
<rect width="1600" height="640" fill="url(#gridB)"/>
<circle cx="1230" cy="150" r="430" fill="url(#glowB)"/>
<g transform="translate(990.00 50.00) scale(23.3333)" fill="#fb923c" opacity="0.07"><path d="M13 3v6h8V3m-8 18h8V11h-8M3 21h8v-6H3m0-2h8V3H3z"/></g>
<circle cx="1270" cy="330" r="250" fill="none" stroke="#fb923c" stroke-opacity="0.10" stroke-width="2"/>
<circle cx="1270" cy="330" r="320" fill="none" stroke="#fb923c" stroke-opacity="0.06" stroke-width="2"/>
<rect x="110" y="150" width="150" height="150" rx="36" fill="#ffffff" fill-opacity="0.04"/>
<rect x="110" y="150" width="150" height="150" rx="36" fill="none" stroke="url(#gradB)" stroke-opacity="0.55" stroke-width="2"/>
<rect x="110" y="150" width="150" height="150" rx="36" fill="url(#sheenB)"/>
<g filter="url(#blurB)" opacity="0.45"><g transform="translate(139.00 187.00) scale(3.8333)" fill="#000000"><path d="M13 3v6h8V3m-8 18h8V11h-8M3 21h8v-6H3m0-2h8V3H3z"/></g></g><g transform="translate(139.00 179.00) scale(3.8333)" fill="url(#gradB)"><path d="M13 3v6h8V3m-8 18h8V11h-8M3 21h8v-6H3m0-2h8V3H3z"/></g>
<text x="300" y="195" font-family="'Inter','Segoe UI','Helvetica Neue',-apple-system,system-ui,'Noto Sans CJK TC','PingFang TC','Microsoft JhengHei',sans-serif" font-size="24" font-weight="600" letter-spacing="3" fill="#fb923c" fill-opacity="0.85">AGV · WEBSOCKET · REALTIME</text>
<text x="300" y="266" font-family="'Inter','Segoe UI','Helvetica Neue',-apple-system,system-ui,'Noto Sans CJK TC','PingFang TC','Microsoft JhengHei',sans-serif" font-size="76" font-weight="800" fill="#ffffff" letter-spacing="-1">Industrial AI Dashboard<tspan dx="22" font-size="32" font-weight="700" letter-spacing="2" fill="#fb923c">STARTER</tspan></text>
<rect x="302" y="292" width="120" height="4" rx="2" fill="url(#gradB)"/>
<text x="300" y="346" font-family="'Inter','Segoe UI','Helvetica Neue',-apple-system,system-ui,'Noto Sans CJK TC','PingFang TC','Microsoft JhengHei',sans-serif" font-size="30" font-weight="500" fill="#ffffff" fill-opacity="0.78">模擬 AGV / 機台資料的即時監控骨架</text>
<rect x="300" y="430" width="151" height="50" rx="25" fill="#ffffff" fill-opacity="0.05"/>
<rect x="300" y="430" width="151" height="50" rx="25" fill="none" stroke="#ffffff" stroke-opacity="0.10" stroke-width="1"/>
<g transform="translate(318.00 443.00) scale(1.0000)" fill="#ffffff" opacity="0.92"><path d="M12 .0387C5.3729.0384.0003 5.3931 0 11.9988c-.001 6.6066 5.372 11.9628 12 11.9625 6.628.0003 12.001-5.3559 12-11.9625-.0003-6.6057-5.3729-11.9604-12-11.96m-.829 5.4153h7.55l-7.5805 5.3284h5.1828L5.279 18.5436q2.9466-6.5444 5.892-13.0896"/></g>
<text x="348" y="462" font-family="'Inter','Segoe UI','Helvetica Neue',-apple-system,system-ui,'Noto Sans CJK TC','PingFang TC','Microsoft JhengHei',sans-serif" font-size="20" font-weight="600" fill="#ffffff" fill-opacity="0.85">FastAPI</text>
<rect x="467" y="430" width="138" height="50" rx="25" fill="#ffffff" fill-opacity="0.05"/>
<rect x="467" y="430" width="138" height="50" rx="25" fill="none" stroke="#ffffff" stroke-opacity="0.10" stroke-width="1"/>
<g transform="translate(485.00 443.00) scale(1.0000)" fill="#ffffff" opacity="0.92"><path d="M14.25.18l.9.2.73.26.59.3.45.32.34.34.25.34.16.33.1.3.04.26.02.2-.01.13V8.5l-.05.63-.13.55-.21.46-.26.38-.3.31-.33.25-.35.19-.35.14-.33.1-.3.07-.26.04-.21.02H8.77l-.69.05-.59.14-.5.22-.41.27-.33.32-.27.35-.2.36-.15.37-.1.35-.07.32-.04.27-.02.21v3.06H3.17l-.21-.03-.28-.07-.32-.12-.35-.18-.36-.26-.36-.36-.35-.46-.32-.59-.28-.73-.21-.88-.14-1.05-.05-1.23.06-1.22.16-1.04.24-.87.32-.71.36-.57.4-.44.42-.33.42-.24.4-.16.36-.1.32-.05.24-.01h.16l.06.01h8.16v-.83H6.18l-.01-2.75-.02-.37.05-.34.11-.31.17-.28.25-.26.31-.23.38-.2.44-.18.51-.15.58-.12.64-.1.71-.06.77-.04.84-.02 1.27.05zm-6.3 1.98l-.23.33-.08.41.08.41.23.34.33.22.41.09.41-.09.33-.22.23-.34.08-.41-.08-.41-.23-.33-.33-.22-.41-.09-.41.09zm13.09 3.95l.28.06.32.12.35.18.36.27.36.35.35.47.32.59.28.73.21.88.14 1.04.05 1.23-.06 1.23-.16 1.04-.24.86-.32.71-.36.57-.4.45-.42.33-.42.24-.4.16-.36.09-.32.05-.24.02-.16-.01h-8.22v.82h5.84l.01 2.76.02.36-.05.34-.11.31-.17.29-.25.25-.31.24-.38.2-.44.17-.51.15-.58.13-.64.09-.71.07-.77.04-.84.01-1.27-.04-1.07-.14-.9-.2-.73-.25-.59-.3-.45-.33-.34-.34-.25-.34-.16-.33-.1-.3-.04-.25-.02-.2.01-.13v-5.34l.05-.64.13-.54.21-.46.26-.38.3-.32.33-.24.35-.2.35-.14.33-.1.3-.06.26-.04.21-.02.13-.01h5.84l.69-.05.59-.14.5-.21.41-.28.33-.32.27-.35.2-.36.15-.36.1-.35.07-.32.04-.28.02-.21V6.07h2.09l.14.01zm-6.47 14.25l-.23.33-.08.41.08.41.23.33.33.23.41.08.41-.08.33-.23.23-.33.08-.41-.08-.41-.23-.33-.33-.23-.41-.08-.41.08z"/></g>
<text x="515" y="462" font-family="'Inter','Segoe UI','Helvetica Neue',-apple-system,system-ui,'Noto Sans CJK TC','PingFang TC','Microsoft JhengHei',sans-serif" font-size="20" font-weight="600" fill="#ffffff" fill-opacity="0.85">Python</text>
<rect x="621" y="430" width="99" height="50" rx="25" fill="#ffffff" fill-opacity="0.05"/>
<rect x="621" y="430" width="99" height="50" rx="25" fill="none" stroke="#ffffff" stroke-opacity="0.10" stroke-width="1"/>
<g transform="translate(639.00 443.00) scale(1.0000)" fill="#ffffff" opacity="0.92"><path d="M6 4v7H4c-1.11 0-2 .89-2 2v4a3 3 0 0 0 3 3a3 3 0 0 0 3-3h2a3 3 0 0 0 3 3a3 3 0 0 0 3-3v-4l-4-9zm11 1v14h5v-1.5h-3.5V5zm-9.5.5h3.7l3.3 7.5h-7zM5 15.5A1.5 1.5 0 0 1 6.5 17A1.5 1.5 0 0 1 5 18.5A1.5 1.5 0 0 1 3.5 17A1.5 1.5 0 0 1 5 15.5m8 0a1.5 1.5 0 0 1 1.5 1.5a1.5 1.5 0 0 1-1.5 1.5a1.5 1.5 0 0 1-1.5-1.5a1.5 1.5 0 0 1 1.5-1.5"/></g>
<text x="669" y="462" font-family="'Inter','Segoe UI','Helvetica Neue',-apple-system,system-ui,'Noto Sans CJK TC','PingFang TC','Microsoft JhengHei',sans-serif" font-size="20" font-weight="600" fill="#ffffff" fill-opacity="0.85">AGV</text>
<rect x="736" y="430" width="164" height="50" rx="25" fill="#ffffff" fill-opacity="0.05"/>
<rect x="736" y="430" width="164" height="50" rx="25" fill="none" stroke="#ffffff" stroke-opacity="0.10" stroke-width="1"/>
<g transform="translate(754.00 443.00) scale(1.0000)" fill="#ffffff" opacity="0.92"><path d="M12 2A10 10 0 0 0 2 12a10 10 0 0 0 10 10a10 10 0 0 0 10-10A10 10 0 0 0 12 2m0 2a8 8 0 0 1 8 8c0 2.4-1 4.5-2.7 6c-1.4-1.3-3.3-2-5.3-2s-3.8.7-5.3 2C5 16.5 4 14.4 4 12a8 8 0 0 1 8-8m2 1.89c-.38.01-.74.26-.9.65l-1.29 3.23l-.1.23c-.71.13-1.3.6-1.57 1.26c-.41 1.03.09 2.19 1.12 2.6s2.19-.09 2.6-1.12c.26-.66.14-1.42-.29-1.98l.1-.26l1.29-3.21l.01-.03c.2-.51-.05-1.09-.56-1.3c-.13-.05-.26-.07-.41-.07M10 6a1 1 0 0 0-1 1a1 1 0 0 0 1 1a1 1 0 0 0 1-1a1 1 0 0 0-1-1M7 9a1 1 0 0 0-1 1a1 1 0 0 0 1 1a1 1 0 0 0 1-1a1 1 0 0 0-1-1m10 0a1 1 0 0 0-1 1a1 1 0 0 0 1 1a1 1 0 0 0 1-1a1 1 0 0 0-1-1"/></g>
<text x="784" y="462" font-family="'Inter','Segoe UI','Helvetica Neue',-apple-system,system-ui,'Noto Sans CJK TC','PingFang TC','Microsoft JhengHei',sans-serif" font-size="20" font-weight="600" fill="#ffffff" fill-opacity="0.85">Realtime</text>
</svg>