<svg xmlns="http://www.w3.org/2000/svg" width="512" height="512" viewBox="0 0 512 512" role="img" aria-label="Industrial AI Dashboard logo">
<defs>
  <linearGradient id="gradL" x1="0" y1="0" x2="1" y2="1">
    <stop offset="0" stop-color="#fb923c"/><stop offset="1" stop-color="#0284c7"/></linearGradient>
  <linearGradient id="bggL" x1="0" y1="0" x2="0.6" y2="1">
    <stop offset="0" stop-color="#192335"/><stop offset="1" stop-color="#0b111b"/></linearGradient>
  <radialGradient id="glowL" cx="0.5" cy="0.5" r="0.5">
    <stop offset="0" stop-color="#fb923c" stop-opacity="0.55"/>
    <stop offset="0.55" stop-color="#0284c7" stop-opacity="0.12"/>
    <stop offset="1" stop-color="#fb923c" stop-opacity="0"/></radialGradient>
  <filter id="blurL" x="-60%" y="-60%" width="220%" height="220%">
    <feGaussianBlur stdDeviation="9"/></filter>
  <linearGradient id="sheenL" x1="0" y1="0" x2="0" y2="1">
    <stop offset="0" stop-color="#ffffff" stop-opacity="0.10"/>
    <stop offset="0.45" stop-color="#ffffff" stop-opacity="0"/></linearGradient>
  <pattern id="gridL" width="32" height="32" patternUnits="userSpaceOnUse">
    <path d="M32 0H0V32" fill="none" stroke="#fb923c" stroke-opacity="0.05" stroke-width="1"/></pattern>
</defs>
<rect width="512" height="512" rx="116" fill="url(#bggL)"/>
<rect width="512" height="512" rx="116" fill="url(#gridL)"/>
<circle cx="256" cy="236" r="190" fill="url(#glowL)"/>
<circle cx="256" cy="256" r="150" fill="none" stroke="url(#gradL)" stroke-opacity="0.25" stroke-width="2"/>
<rect width="512" height="512" rx="116" fill="url(#sheenL)"/>
<g filter="url(#blurL)" opacity="0.45"><g transform="translate(144.00 152.00) scale(9.3333)" fill="#000000"><path d="M13 3v6h8V3m-8 18h8V11h-8M3 21h8v-6H3m0-2h8V3H3z"/></g></g><g transform="translate(144.00 144.00) scale(9.3333)" fill="url(#gradL)"><path d="M13 3v6h8V3m-8 18h8V11h-8M3 21h8v-6H3m0-2h8V3H3z"/></g>
<rect x="2" y="2" width="508" height="508" rx="114" fill="none" stroke="#ffffff" stroke-opacity="0.07" stroke-width="2"/>
<rect x="0.75" y="0.75" width="510.5" height="510.5" rx="116" fill="none" stroke="url(#gradL)" stroke-opacity="0.4" stroke-width="1.5"/>
</svg>